<svg xmlns="http://www.w3.org/2000/svg" width="36" height="32" viewBox="0 0 36 32">
    <path data-name="사각형 2" style="fill:none" d="M0 0h36v32H0z"/>
    <g data-name="10_ic/22/camera">
        <g data-name="Group 9">
            <g data-name="Group 5">
                <path data-name="Stroke 1" d="M13.723 2.6 12.43.8a1.9 1.9 0 0 0-1.549-.8H7.12a1.909 1.909 0 0 0-1.551.8L4.278 2.6a1.161 1.161 0 0 1-.945.485H1.687A1.749 1.749 0 0 0 0 4.889V12.2A1.749 1.749 0 0 0 1.687 14h14.627A1.748 1.748 0 0 0 18 12.2V4.889a1.748 1.748 0 0 0-1.686-1.8h-1.646a1.162 1.162 0 0 1-.945-.489z" style="stroke:#202020;stroke-linecap:round;stroke-linejoin:round;stroke-miterlimit:10;stroke-width:1.25px;fill:#fff" transform="translate(9 9)"/>
                <path data-name="Stroke 3" d="M6 3a3 3 0 1 1-3-3 3 3 0 0 1 3 3z" transform="translate(15 13.5)" style="stroke:#202020;stroke-linecap:round;stroke-linejoin:round;stroke-miterlimit:10;stroke-width:1.25px;fill:none"/>
            </g>
            <g data-name="Group 8">
                <path data-name="Clip 7" d="M0 .925a.924.924 0 0 0 .925.925.924.924 0 0 0 .925-.925A.926.926 0 0 0 .925 0 .926.926 0 0 0 0 .925z" style="fill:#202020" transform="translate(23 14.5)"/>
            </g>
        </g>
    </g>
</svg>
